# xmcd
#
# Track frame offsets:
#	150
#	13500
#	25457
#	39870
#	54877
#	67447
#	85297
#	100555
#	112670
#	125895
#	139760
#	150190
#	169692
#	179600
#	190537
#	202377
#	212715
#	227592
#	238970
#	250542
#
# Disc length: 3471 seconds
#
# Revision: 0
# Processed by: cddbd v1.5.2PL0 Copyright (c) Steve Scherf et al.
# Submitted via: audiograbber 1.83.01
#
DISCID=0c0d8d14
DTITLE=Kenny Rogers - The Best Of Kenny Rogers and The First Edition
DYEAR=1989
DGENRE=Pop-Folk
TTITLE0=Ruby, Don't Take Your Love To Town
TTITLE1=Me And Bobby Mcgee
TTITLE2=Sunshine
TTITLE3=Just Dropped In
TTITLE4=Reuben James
TTITLE5=Something's Burning
TTITLE6=For The Good Times
TTITLE7=Elvira
TTITLE8=Shine On Ruby Mountain
TTITLE9=Loser
TTITLE10=Ticket To Nowhere
TTITLE11=Lay It Down
TTITLE12=New Design
TTITLE13=Always Leaving, Always Gone
TTITLE14=What Am I Gonna Do
TTITLE15=Goodtime Liberator
TTITLE16=All God's Lonely Children
TTITLE17=If Wishes Were Horses
TTITLE18=Girl Get A Hold Of Yourself
TTITLE19=Once Again She's All Alone
EXTD=
EXTT0=
EXTT1=
EXTT2=
EXTT3=
EXTT4=
EXTT5=
EXTT6=
EXTT7=
EXTT8=
EXTT9=
EXTT10=
EXTT11=
EXTT12=
EXTT13=
EXTT14=
EXTT15=
EXTT16=
EXTT17=
EXTT18=
EXTT19=
PLAYORDER=
